<svg xmlns="http://www.w3.org/2000/svg" xmlns:xlink="http://www.w3.org/1999/xlink" width="150" zoomAndPan="magnify" 
viewBox="0 0 112.5 112.499997" height="150" preserveAspectRatio="xMidYMid meet" version="1.0"><defs>
<clipPath id="15008c3b01">
<path d="M 24 2.464844 L 89.449219 2.464844 L 89.449219 109.714844 L 24 109.714844 Z M 24 2.464844 " clip-rule="nonzero"/>
</clipPath></defs>
<g clip-path="url(#15008c3b01)">
<path fill="#040606" d="M 43.800781 5.84375 C 41.628906 3.667969 38.738281 2.464844 35.664062 2.464844 C 32.589844 2.464844 29.707031 3.667969 27.535156 5.84375
 C 23.046875 10.339844 23.046875 17.65625 27.527344 22.160156 L 59.964844 54.734375 C 60.710938 55.480469 60.710938 56.695312 59.964844 57.441406 L 27.527344 90.015625
 C 23.046875 94.511719 23.046875 101.835938 27.535156 106.332031 C 29.707031 108.515625 32.589844 109.714844 35.664062 109.714844 C 38.738281 109.714844 41.628906 108.515625
 43.800781 106.332031 L 85.753906 64.25 C 87.933594 62.066406 89.136719 59.171875 89.136719 56.089844 C 89.136719 53.007812 87.933594 50.109375 85.753906 47.933594 L 43.800781
 5.84375 " fill-opacity="1" fill-rule="nonzero"/></g></svg>