<svg xmlns="http://www.w3.org/2000/svg" xmlns:xlink="http://www.w3.org/1999/xlink" width="150" zoomAndPan="magnify" viewBox="0 0 112.5 112.499997" height="150" preserveAspectRatio="xMidYMid meet" version="1.0"><defs><clipPath id="7016c831ed"><path d="M 23.039062 2.464844 L 89 2.464844 L 89 109.714844 L 23.039062 109.714844 Z M 23.039062 2.464844 " clip-rule="nonzero"/></clipPath></defs><g clip-path="url(#7016c831ed)"><path fill="#040606" d="M 68.691406 5.84375 C 70.863281 3.667969 73.75 2.464844 76.828125 2.464844 C 79.902344 2.464844 82.785156 3.667969 84.957031 5.84375 C 89.441406 10.339844 89.441406 17.65625 84.964844 22.160156 L 52.527344 54.734375 C 51.78125 55.480469 51.78125 56.695312 52.527344 57.441406 L 84.964844 90.015625 C 89.441406 94.511719 89.441406 101.835938 84.957031 106.332031 C 82.785156 108.515625 79.902344 109.714844 76.828125 109.714844 C 73.75 109.714844 70.863281 108.515625 68.691406 106.332031 L 26.734375 64.25 C 24.554688 62.066406 23.351562 59.171875 23.351562 56.089844 C 23.351562 53.007812 24.554688 50.109375 26.734375 47.933594 L 68.691406 5.84375 " fill-opacity="1" fill-rule="nonzero"/></g></svg>