<svg xmlns="http://www.w3.org/2000/svg" xmlns:xlink="http://www.w3.org/1999/xlink" width="500" zoomAndPan="magnify" viewBox="0 0 375 374.999991" height="500" preserveAspectRatio="xMidYMid meet" version="1.0"><defs><g/></defs><g fill="#0f1a44" fill-opacity="1"><g transform="translate(9.259751, 337.258514)"><g><path d="M 193.175781 -293.964844 L 87.769531 -293.964844 C 84.410156 -293.964844 81.890625 -291.445312 81.890625 -288.082031 C 81.890625 -284.722656 84.410156 -282.203125 87.769531 -282.203125 L 107.925781 -282.203125 L 107.925781 -9.238281 C 101.628906 -7.140625 94.488281 -6.300781 87.347656 -6.300781 C 48.714844 -6.300781 16.796875 -36.117188 13.859375 -74.332031 C 13.4375 -77.691406 10.917969 -80.210938 7.558594 -80.210938 L 7.140625 -80.210938 C 4.199219 -80.210938 1.261719 -77.691406 1.261719 -74.332031 L 1.261719 -73.492188 C 4.621094 -28.554688 41.574219 6.300781 87.347656 6.300781 C 135.222656 6.300781 173.4375 -33.175781 173.4375 -81.890625 L 173.4375 -282.203125 L 193.175781 -282.203125 C 196.535156 -282.203125 199.054688 -284.722656 199.054688 -288.082031 C 199.054688 -291.445312 196.535156 -293.964844 193.175781 -293.964844 Z M 160.839844 -282.203125 L 160.839844 -81.890625 C 160.839844 -52.492188 144.460938 -26.875 120.523438 -14.277344 L 120.523438 -282.203125 Z M 160.839844 -282.203125 "/></g></g></g><g fill="#0f1a44" fill-opacity="1"><g transform="translate(125.491103, 337.258514)"><g><path d="M 154.960938 -293.964844 L 32.757812 -293.964844 C 28.976562 -293.964844 26.457031 -291.445312 26.457031 -287.664062 C 26.457031 -284.304688 28.976562 -282.203125 32.757812 -282.203125 L 49.132812 -282.203125 L 49.132812 -11.757812 L 28.976562 -11.757812 C 25.617188 -11.757812 23.097656 -9.660156 23.097656 -5.878906 C 23.097656 -2.101562 25.617188 0 28.976562 0 L 135.222656 0 C 138.582031 0 141.101562 -2.101562 141.101562 -5.878906 C 141.101562 -9.660156 138.582031 -11.757812 135.222656 -11.757812 L 114.644531 -11.757812 L 114.644531 -119.265625 L 154.960938 -119.265625 C 207.875 -119.265625 238.53125 -154.121094 238.53125 -207.035156 C 238.53125 -259.109375 207.875 -293.964844 154.960938 -293.964844 Z M 102.046875 -11.757812 L 61.730469 -11.757812 L 61.730469 -282.203125 L 102.046875 -282.203125 Z M 154.960938 -131.023438 L 114.644531 -131.023438 L 114.644531 -282.203125 L 154.960938 -282.203125 C 161.261719 -282.203125 167.140625 -281.785156 172.597656 -280.523438 L 172.597656 -132.703125 C 167.140625 -131.445312 161.261719 -131.023438 154.960938 -131.023438 Z M 185.195312 -136.484375 L 185.195312 -276.746094 C 211.652344 -266.246094 225.933594 -240.628906 225.933594 -207.035156 C 225.933594 -172.597656 211.652344 -146.980469 185.195312 -136.484375 Z M 185.195312 -136.484375 "/></g></g></g></svg>